<svg width="86" height="91" viewBox="0 0 86 91" fill="none" xmlns="http://www.w3.org/2000/svg">
<path fill-rule="evenodd" clip-rule="evenodd" d="M14.904 0.321C12.356 0.321 10.036 2.238 10.067 4.882C9.631 4.741 9.161 4.664 8.671 4.664C6.406 4.664 4.571 6.305 4.571 8.329C4.571 10.353 6.407 11.994 8.671 11.994C8.891 11.994 9.106 11.978 9.317 11.949C8.393 14.891 10.279 17.804 13.189 18.625V21.21H20.142V16.671C21.938 20.083 26.781 20.664 29.495 18.04C30.272 20.101 32.377 21.58 34.853 21.58C37.989 21.58 40.531 19.21 40.531 16.285C40.531 14.765 39.844 13.395 38.745 12.43C38.926 12.453 39.11 12.464 39.297 12.464C41.564 12.464 43.401 10.751 43.401 8.637C43.401 6.523 41.563 4.81 39.297 4.81C38.582 4.81 37.909 4.981 37.324 5.281C36.738 2.277 33.919 0 30.529 0C28.014 0 25.812 1.254 24.605 3.128C23.18 1.654 20.792 1.454 19.116 2.611C18.284 1.243 16.71 0.321 14.904 0.321ZM9.011 24.228H24.321C25.049 24.228 25.642 24.821 25.642 25.549V27.028C25.642 27.756 25.049 28.349 24.321 28.349H9.011C8.283 28.349 7.69 27.756 7.69 27.028V25.549C7.69 24.821 8.284 24.228 9.011 24.228ZM1.321 77.636H47.196C47.679 79.526 48.416 81.314 49.367 82.962H1.321C0.593 82.962 0 82.369 0 81.641V78.957C0 78.23 0.593 77.636 1.321 77.636ZM25.667 39.955L29.837 74.617H3.494L7.664 39.955H25.667ZM24.634 31.368L25.304 36.935H8.028L8.698 31.368H24.634ZM28.549 38.63L32.879 74.617H46.654C46.576 73.875 46.534 73.122 46.534 72.359C46.534 60.627 56.045 51.116 67.777 51.116C72.018 51.116 75.968 52.359 79.284 54.5V33.938C79.284 32.971 78.29 32.334 77.411 32.738L61.258 40.166V33.939C61.258 32.972 60.264 32.335 59.385 32.739L43.232 40.167V33.94C43.232 32.973 42.238 32.336 41.359 32.74L28.549 38.63ZM69.354 48.585C68.598 48.93 67.706 48.598 67.361 47.842C67.016 47.086 67.348 46.194 68.104 45.849L74.945 42.703C75.701 42.358 76.593 42.69 76.938 43.446C77.283 44.202 76.951 45.094 76.195 45.439L69.354 48.585ZM51.328 48.585C50.572 48.93 49.68 48.598 49.335 47.842C48.99 47.086 49.322 46.194 50.078 45.849L56.919 42.703C57.675 42.358 58.567 42.69 58.912 43.446C59.257 44.202 58.925 45.094 58.169 45.439L51.328 48.585ZM33.303 48.585C32.547 48.93 31.655 48.598 31.31 47.842C30.965 47.086 31.297 46.194 32.053 45.849L38.894 42.703C39.65 42.358 40.542 42.69 40.887 43.446C41.232 44.202 40.9 45.094 40.144 45.439L33.303 48.585Z" fill="white"/>
<path fill-rule="evenodd" clip-rule="evenodd" d="M86 72.276C86 82.341 77.841 90.5 67.776 90.5C57.711 90.5 49.552 82.341 49.552 72.276C49.552 62.211 57.711 54.052 67.776 54.052C77.841 54.052 86 62.211 86 72.276ZM69.547 59.196L70.381 61.364C71.535 61.639 72.638 62.096 73.649 62.719L75.775 61.777L78.278 64.28L77.335 66.403C77.957 67.414 78.415 68.518 78.69 69.673L80.857 70.507V74.047L78.689 74.881C78.414 76.036 77.956 77.139 77.334 78.15L78.277 80.274L75.774 82.777L73.651 81.834C72.64 82.456 71.536 82.914 70.381 83.189L69.547 85.356H66.007L65.173 83.188C64.018 82.913 62.915 82.455 61.904 81.833L59.78 82.776L57.277 80.273L58.22 78.15C57.598 77.139 57.14 76.035 56.865 74.88L54.698 74.046V70.506L56.865 69.672C57.14 68.517 57.598 67.414 58.22 66.403L57.277 64.279L59.78 61.776L61.904 62.719C62.915 62.097 64.018 61.639 65.173 61.364L66.007 59.196H69.547ZM67.776 66.102C64.366 66.102 61.602 68.866 61.602 72.276C61.602 75.686 64.366 78.45 67.776 78.45C71.186 78.45 73.95 75.686 73.95 72.276C73.95 68.866 71.186 66.102 67.776 66.102Z" fill="#E55137"/>
<path fill-rule="evenodd" clip-rule="evenodd" d="M86 72.276C86 82.341 77.841 90.5 67.776 90.5C57.711 90.5 49.552 82.341 49.552 72.276C49.552 62.211 57.711 54.052 67.776 54.052C77.841 54.052 86 62.211 86 72.276ZM69.547 59.196L70.381 61.364C71.535 61.639 72.638 62.096 73.649 62.719L75.775 61.777L78.278 64.28L77.335 66.403C77.957 67.414 78.415 68.518 78.69 69.673L80.857 70.507V74.047L78.689 74.881C78.414 76.036 77.956 77.139 77.334 78.15L78.277 80.274L75.774 82.777L73.651 81.834C72.64 82.456 71.536 82.914 70.381 83.189L69.547 85.356H66.007L65.173 83.188C64.018 82.913 62.915 82.455 61.904 81.833L59.78 82.776L57.277 80.273L58.22 78.15C57.598 77.139 57.14 76.035 56.865 74.88L54.698 74.046V70.506L56.865 69.672C57.14 68.517 57.598 67.414 58.22 66.403L57.277 64.279L59.78 61.776L61.904 62.719C62.915 62.097 64.018 61.639 65.173 61.364L66.007 59.196H69.547ZM67.776 66.102C64.366 66.102 61.602 68.866 61.602 72.276C61.602 75.686 64.366 78.45 67.776 78.45C71.186 78.45 73.95 75.686 73.95 72.276C73.95 68.866 71.186 66.102 67.776 66.102Z" fill="url(#paint0_linear_101_5699)" fill-opacity="0.2"/>
<defs>
<linearGradient id="paint0_linear_101_5699" x1="86" y1="50.5" x2="46.5" y2="91" gradientUnits="userSpaceOnUse">
<stop stop-color="white"/>
<stop offset="1" stop-color="white" stop-opacity="0"/>
</linearGradient>
</defs>
</svg>
