<svg width="87" height="87" viewBox="0 0 87 87" fill="none" xmlns="http://www.w3.org/2000/svg">
<path fill-rule="evenodd" clip-rule="evenodd" d="M84.055 50.653C75.497 50.653 71.204 61.02 77.255 67.071C78.37 68.186 78.37 69.993 77.255 71.108L71.109 77.253C69.994 78.368 68.187 78.368 67.072 77.253C61.021 71.202 50.654 75.496 50.654 84.053C50.654 85.63 49.376 86.907 47.8 86.907H39.109C37.533 86.907 36.255 85.63 36.255 84.053C36.255 75.485 25.895 71.194 19.837 77.253C18.722 78.368 16.915 78.368 15.8 77.253L9.654 71.108C8.539 69.993 8.539 68.186 9.654 67.071C15.705 61.02 11.411 50.653 2.854 50.653C1.277 50.653 0 49.375 0 47.799V39.108C0 37.532 1.277 36.254 2.854 36.254C11.412 36.254 15.705 25.887 9.654 19.836C8.539 18.721 8.539 16.914 9.654 15.799L15.799 9.654C16.914 8.539 18.721 8.539 19.836 9.654C25.887 15.705 36.254 11.411 36.254 2.854C36.254 1.277 37.532 0 39.108 0H47.799C49.375 0 50.653 1.277 50.653 2.854C50.653 11.412 61.02 15.705 67.071 9.654C68.186 8.539 69.993 8.539 71.108 9.654L77.253 15.799C78.368 16.914 78.368 18.721 77.253 19.836C71.202 25.887 75.496 36.254 84.053 36.254C85.63 36.254 86.907 37.532 86.907 39.108V47.799C86.909 49.374 85.632 50.653 84.055 50.653ZM66.34 43.453C66.34 30.813 56.093 20.567 43.454 20.567C30.813 20.567 20.568 30.813 20.568 43.453C20.568 56.092 30.814 66.339 43.454 66.339C56.093 66.339 66.34 56.092 66.34 43.453Z" fill="#E55137"/>
<path fill-rule="evenodd" clip-rule="evenodd" d="M84.055 50.653C75.497 50.653 71.204 61.02 77.255 67.071C78.37 68.186 78.37 69.993 77.255 71.108L71.109 77.253C69.994 78.368 68.187 78.368 67.072 77.253C61.021 71.202 50.654 75.496 50.654 84.053C50.654 85.63 49.376 86.907 47.8 86.907H39.109C37.533 86.907 36.255 85.63 36.255 84.053C36.255 75.485 25.895 71.194 19.837 77.253C18.722 78.368 16.915 78.368 15.8 77.253L9.654 71.108C8.539 69.993 8.539 68.186 9.654 67.071C15.705 61.02 11.411 50.653 2.854 50.653C1.277 50.653 0 49.375 0 47.799V39.108C0 37.532 1.277 36.254 2.854 36.254C11.412 36.254 15.705 25.887 9.654 19.836C8.539 18.721 8.539 16.914 9.654 15.799L15.799 9.654C16.914 8.539 18.721 8.539 19.836 9.654C25.887 15.705 36.254 11.411 36.254 2.854C36.254 1.277 37.532 0 39.108 0H47.799C49.375 0 50.653 1.277 50.653 2.854C50.653 11.412 61.02 15.705 67.071 9.654C68.186 8.539 69.993 8.539 71.108 9.654L77.253 15.799C78.368 16.914 78.368 18.721 77.253 19.836C71.202 25.887 75.496 36.254 84.053 36.254C85.63 36.254 86.907 37.532 86.907 39.108V47.799C86.909 49.374 85.632 50.653 84.055 50.653ZM66.34 43.453C66.34 30.813 56.093 20.567 43.454 20.567C30.813 20.567 20.568 30.813 20.568 43.453C20.568 56.092 30.814 66.339 43.454 66.339C56.093 66.339 66.34 56.092 66.34 43.453Z" fill="url(#paint0_linear_101_5714)" fill-opacity="0.15"/>
<defs>
<linearGradient id="paint0_linear_101_5714" x1="87" y1="-7.62961e-06" x2="44.9612" y2="-18.0009" gradientUnits="userSpaceOnUse">
<stop stop-color="white"/>
<stop offset="1" stop-color="white" stop-opacity="0"/>
</linearGradient>
</defs>
</svg>
