<svg width="91" height="91" viewBox="0 0 91 91" fill="none" xmlns="http://www.w3.org/2000/svg">
<path d="M85.9445 33.8722H5.05556V0H0C0 35.5377 0 55.4623 0 91H5.05556V79.3722H85.9445V91H91V0H85.9445V33.8722ZM5.05556 74.3167V38.9278H85.9445V74.3167H5.05556Z" fill="#E55137"/>
<path d="M32.3558 8.08889C32.0903 8.08886 31.8273 8.14115 31.582 8.24275C31.3366 8.34435 31.1137 8.49328 30.9259 8.68104C30.7381 8.8688 30.5892 9.09171 30.4875 9.33704C30.3859 9.58237 30.3336 9.84532 30.3336 10.1109V27.3C30.3336 27.8363 30.5466 28.3507 30.9259 28.7299C31.3051 29.1092 31.8195 29.3222 32.3558 29.3222H58.6442C58.9098 29.3222 59.1727 29.2699 59.4181 29.1683C59.6634 29.0667 59.8863 28.9177 60.0741 28.7299C60.2619 28.5421 60.4109 28.3192 60.5125 28.0739C60.6141 27.8285 60.6664 27.5656 60.6664 27.3V10.1109C60.6664 9.84532 60.6141 9.58237 60.5125 9.33704C60.4108 9.09171 60.2619 8.8688 60.0741 8.68104C59.8863 8.49328 59.6634 8.34435 59.418 8.24275C59.1727 8.14115 58.9098 8.08886 58.6442 8.08889H48.5333V19.211C48.5333 19.6093 48.4549 20.0038 48.3024 20.3718C48.15 20.7398 47.9266 21.0742 47.6449 21.3559C47.3632 21.6376 47.0288 21.861 46.6608 22.0134C46.2928 22.1659 45.8983 22.2443 45.5 22.2443C45.1017 22.2443 44.7072 22.1659 44.3392 22.0134C43.9712 21.861 43.6368 21.6376 43.3551 21.3559C43.0734 21.0742 42.85 20.7398 42.6976 20.3718C42.5451 20.0038 42.4667 19.6093 42.4667 19.211V8.08889H32.3558Z" fill="white"/>
<path d="M39.4331 48.5333H29.3222V59.6554C29.3222 60.0538 29.2438 60.4482 29.0913 60.8163C28.9389 61.1843 28.7154 61.5187 28.4338 61.8004C28.1521 62.0821 27.8177 62.3055 27.4497 62.4579C27.0816 62.6104 26.6872 62.6888 26.2888 62.6888C25.8905 62.6888 25.496 62.6104 25.128 62.4579C24.76 62.3055 24.4256 62.0821 24.1439 61.8004C23.8622 61.5187 23.6388 61.1843 23.4863 60.8163C23.3339 60.4482 23.2554 60.0538 23.2554 59.6554V48.5333H13.1444C12.8789 48.5333 12.616 48.5856 12.3707 48.6872C12.1253 48.7888 11.9024 48.9378 11.7147 49.1255C11.5269 49.3133 11.378 49.5362 11.2764 49.7815C11.1748 50.0268 11.1225 50.2898 11.1225 50.5553V67.7444C11.1224 68.2807 11.3355 68.7951 11.7146 69.1743C12.0938 69.5536 12.6082 69.7666 13.1444 69.7667H39.4331C39.9694 69.7666 40.4838 69.5536 40.863 69.1743C41.2422 68.7951 41.4553 68.2808 41.4553 67.7444V50.5553C41.4553 50.019 41.2422 49.5047 40.863 49.1255C40.4837 48.7463 39.9694 48.5333 39.4331 48.5333Z" fill="white"/>
<path d="M77.8556 48.5333H67.7446V59.6554C67.7446 60.0538 67.6661 60.4482 67.5137 60.8163C67.3612 61.1843 67.1378 61.5187 66.8561 61.8004C66.5744 62.0821 66.24 62.3055 65.872 62.4579C65.504 62.6104 65.1095 62.6888 64.7112 62.6888C64.3128 62.6888 63.9184 62.6104 63.5503 62.4579C63.1823 62.3055 62.8479 62.0821 62.5662 61.8004C62.2846 61.5187 62.0611 61.1843 61.9087 60.8163C61.7562 60.4482 61.6778 60.0538 61.6778 59.6554V48.5333H51.5669C51.0306 48.5333 50.5163 48.7463 50.137 49.1255C49.7578 49.5047 49.5447 50.019 49.5447 50.5553V67.7444C49.5447 68.2808 49.7578 68.7951 50.137 69.1743C50.5162 69.5536 51.0306 69.7666 51.5669 69.7667H77.8556C78.3919 69.7666 78.9062 69.5536 79.2854 69.1743C79.6646 68.7951 79.8776 68.2807 79.8775 67.7444V50.5553C79.8775 50.2898 79.8252 50.0268 79.7236 49.7815C79.622 49.5362 79.4731 49.3133 79.2853 49.1255C79.0976 48.9378 78.8747 48.7888 78.6293 48.6872C78.384 48.5856 78.1211 48.5333 77.8556 48.5333Z" fill="white"/>
</svg>
