<svg width="24" height="24" viewBox="0 0 24 24" fill="none" xmlns="http://www.w3.org/2000/svg">
<path d="M0.19043 23.2903L1.8637 17.0721C0.914015 15.3649 0.427877 13.4542 0.427877 11.5209C0.427877 5.18964 5.5833 0.0341797 11.9146 0.0341797C18.2458 0.0341797 23.4013 5.18964 23.4013 11.5209C23.4013 17.8522 18.2458 23.0076 11.9146 23.0076C10.0152 23.0076 8.13843 22.5328 6.45386 21.617L0.201747 23.2903H0.19043ZM6.75911 19.288L7.15482 19.5254C8.60196 20.3846 10.2413 20.8369 11.9146 20.8369C17.0474 20.8369 21.2306 16.6537 21.2306 11.5209C21.2306 6.38805 17.0474 2.20491 11.9146 2.20491C6.78172 2.20491 2.59858 6.38805 2.59858 11.5209C2.59858 13.2168 3.07341 14.89 3.96657 16.3485L4.20402 16.7442L3.27693 20.2151L6.77043 19.2767L6.75911 19.288Z" fill="white"/>
<path fill-rule="evenodd" clip-rule="evenodd" d="M16.1762 13.1149C15.7014 12.8323 15.0908 12.5157 14.5256 12.7418C14.0959 12.9114 13.8246 13.5898 13.5532 13.9289C13.4063 14.1098 13.2367 14.1324 13.0219 14.042C11.4164 13.3975 10.1841 12.3348 9.30224 10.8537C9.15526 10.6276 9.17789 10.4467 9.35879 10.2319C9.63013 9.91534 9.958 9.56486 10.0371 9.13523C10.105 8.70561 9.91276 8.21947 9.73186 7.83507C9.50575 7.34892 9.25701 6.65927 8.77086 6.38793C8.32993 6.1392 7.74206 6.27487 7.34635 6.60274C6.668 7.15673 6.32881 8.02727 6.34012 8.89782C6.34012 9.14655 6.37405 9.38399 6.43058 9.62141C6.56625 10.1867 6.83759 10.7294 7.13154 11.2268C7.35765 11.6112 7.59506 11.9843 7.85509 12.3348C8.71434 13.4993 9.7771 14.5168 11.0207 15.2743C11.6426 15.6474 12.2983 15.9866 12.9879 16.2127C13.7567 16.4727 14.4464 16.7328 15.283 16.5745C16.1536 16.4049 17.0128 15.8735 17.3633 15.0256C17.465 14.7769 17.5216 14.4942 17.465 14.2342C17.352 13.6915 16.6058 13.3636 16.1649 13.1036L16.1762 13.1149Z" fill="white"/>
</svg>
