<svg width="30" height="31" viewBox="0 0 30 31" fill="none" xmlns="http://www.w3.org/2000/svg">
<path d="M29.7317 11.5046L26.1595 29.5148C26.1595 29.5148 25.6599 30.7638 24.286 30.1643L16.0426 23.8444L13.0451 22.3957L7.99916 20.697C7.99916 20.697 7.22478 20.4223 7.14978 19.8228C7.07494 19.2232 8.02416 18.8986 8.02416 18.8986L28.0829 11.0299C28.0829 11.0299 29.7317 10.3056 29.7317 11.5046Z" fill="white"/>
<path d="M15.409 29.3126C15.409 29.3126 15.1684 29.2901 14.8686 28.3407C14.5689 27.3915 13.0451 22.3957 13.0451 22.3957L25.1603 14.702C25.1603 14.702 25.8598 14.2773 25.8348 14.702C25.8348 14.702 25.9597 14.7769 25.585 15.1265C25.2103 15.4764 16.0676 23.6945 16.0676 23.6945" fill="#D2E5F1"/>
<path d="M19.2034 26.2676L15.9427 29.2404C15.9427 29.2404 15.6879 29.4338 15.409 29.3126L16.0334 23.7906" fill="#B5CFE4"/>
</svg>
