<svg width="16" height="16" viewBox="0 0 16 16" fill="none" xmlns="http://www.w3.org/2000/svg">
<path fill-rule="evenodd" clip-rule="evenodd" d="M14.1741 10.1782C13.513 9.78472 12.6631 9.34399 11.8762 9.65878C11.2781 9.89487 10.9003 10.8393 10.5226 11.3115C10.3179 11.5633 10.0819 11.5947 9.78281 11.4688C7.54782 10.5717 5.83222 9.09218 4.60455 7.03031C4.39994 6.71552 4.43145 6.46366 4.68327 6.16461C5.06102 5.7239 5.51747 5.23597 5.62765 4.63787C5.72208 4.03977 5.45448 3.36298 5.20265 2.82784C4.88787 2.15104 4.54159 1.19094 3.8648 0.813188C3.25096 0.466919 2.43255 0.655796 1.88167 1.11224C0.937314 1.88348 0.46511 3.09542 0.48085 4.30736C0.48085 4.65363 0.528095 4.98418 0.606791 5.31471C0.795663 6.10168 1.1734 6.85715 1.58262 7.54969C1.89741 8.08483 2.22791 8.60425 2.58992 9.09218C3.78611 10.7133 5.26563 12.1299 6.99696 13.1845C7.86262 13.7039 8.77549 14.176 9.73559 14.4908C10.8059 14.8528 11.766 15.2148 12.9307 14.9945C14.1426 14.7584 15.3388 14.0186 15.8267 12.8382C15.9684 12.4919 16.0471 12.0984 15.9684 11.7364C15.811 10.9809 14.7722 10.5245 14.1583 10.1625L14.1741 10.1782Z" fill="white"/>
</svg>
